<svg id="Layer_1" height="512" viewBox="0 0 512 512" width="512" xmlns="http://www.w3.org/2000/svg" data-name="Layer 1"><path d="m502.61 229.82-74.45 100.94-47.18-34.8 74.44-100.94z" fill="#9ac5a1"/><path d="m186.24 362.07h-.98v46.89h289v-46.89z" fill="#b0b5ca"/><path d="m457.82 191.76-2.4 3.26-74.44 100.94-1.07 1.44-1.34 1.82-14.34-10.58 2.41-3.26 74.44-100.93 2.4-3.26z" fill="#6a6930"/><path d="m371.34 133.01-74.44 100.94 69.74 51.43 74.44-100.93z" fill="#75967a"/><path d="m232.44 328.9v32.9.27h174.84v-.27-32.9z" fill="#9ac5a1"/><path d="m380.78 298.04v30.86h-23.58v-49.53l.45-.62 8.99 6.63-2.41 3.26 14.34 10.58 1.34-1.82z" fill="#6c876f"/><path d="m373.75 129.75-2.41 3.26-74.44 100.94-2.41 3.26-11.53-8.52-2.8-2.06 2.4-3.26 74.44-100.93 2.41-3.26z" fill="#6a6930"/><path d="m309.82 87.64-74.45 100.93 47.19 34.8 74.44-100.93z" fill="#9ac5a1"/><path d="m282.96 228.69-.43.58v99.63h-23.58v-122.23l.34-.46 23.27 17.16-2.4 3.26z" fill="#6c876f"/><path d="m275.99 91.41-17.41 23.61a132.808 132.808 0 0 1 -27.43-27.48l-17.91-24.19 28.39 9.97a132.45 132.45 0 0 1 34.36 18.09z" fill="#bccbdd"/><path d="m246.4 131.53-17.41 23.61a132.856 132.856 0 0 1 -27.43-27.49l-17.91-24.18 28.39 9.97a132.45 132.45 0 0 1 34.36 18.09z" fill="#bccbdd"/><path d="m166.89 214.01h-105.24a18.469 18.469 0 0 0 -16.51 10.19c-1.42 2.82-3.05 6.12-4.81 9.75l.04.02-25.55 71.42v66.5l.02.13a5.977 5.977 0 0 1 1.28-.13h52.43l.03.03a58.182 58.182 0 0 1 45.02-21.26h2.48c32.2 0 58.3 26.1 57.32 58.3h11.86v-176.87a18.375 18.375 0 0 0 -18.37-18.08z" fill="#75967a"/><path d="m68.55 371.89.03.03a58 58 0 0 0 -13.28 37.04h-39.18a6.752 6.752 0 0 1 -6.73-6.73v-23.61a6.755 6.755 0 0 1 5.45-6.6 5.977 5.977 0 0 1 1.28-.13z" fill="#b0b5ca"/><path d="m415.91 408.96c.01.33.01.66.01.99a38.7 38.7 0 1 1 -77.4 0c0-.33 0-.65.01-.98a38.7 38.7 0 0 1 77.38-.01z" fill="#6d7486"/><path d="m215.38 393.16h83.26v33.57h-83.26z" fill="#9ac5a1"/><path d="m114.84 371.25a38.7 38.7 0 1 1 -38.7 38.7 38.7 38.7 0 0 1 38.7-38.7z" fill="#6d7486"/><path d="m296.1 106.24-17.41 23.61-.34-.25-19.35-14.27c-.14-.1-.28-.21-.42-.31l17.41-23.61c.14.1.29.2.43.31l19.35 14.27z" fill="#fb6771"/><path d="m266.51 146.35-17.42 23.62-.33-.25-19.35-14.27c-.14-.1-.28-.21-.42-.31l17.41-23.61c.14.1.29.2.43.31l19.35 14.27z" fill="#fb6771"/><path d="m68.58 371.92.026-.03h-.056z" fill="#75967a"/><path d="m70.37 233.97-.04-.02c1.76-3.63 3.39-6.93 4.81-9.75a18.469 18.469 0 0 1 16.51-10.19h-30a18.469 18.469 0 0 0 -16.51 10.19c-1.42 2.82-3.05 6.12-4.81 9.75l.04.02-25.55 71.42v66.5l.02.13a5.977 5.977 0 0 1 1.28-.13h28.7v-66.5z" fill="#648468"/><path d="m39.39 402.23v-23.61a6.755 6.755 0 0 1 5.45-6.6 5.977 5.977 0 0 1 1.28-.13h-30a5.977 5.977 0 0 0 -1.28.13 6.755 6.755 0 0 0 -5.45 6.6v23.61a6.752 6.752 0 0 0 6.73 6.73h30a6.752 6.752 0 0 1 -6.73-6.73z" fill="#99a0b5"/><path d="m368.52 409.95c0-.33 0-.65.01-.98a38.708 38.708 0 0 1 23.689-34.7 38.716 38.716 0 0 0 -53.689 34.7c-.01.33-.01.65-.01.98a38.716 38.716 0 0 0 53.7 35.683 38.715 38.715 0 0 1 -23.7-35.683z" fill="#5e6677"/><path d="m106.14 409.95a38.705 38.705 0 0 1 23.7-35.684 38.7 38.7 0 1 0 0 71.367 38.715 38.715 0 0 1 -23.7-35.683z" fill="#5e6677"/><path d="m102.72 233.97v48.4l-87.9 23.02v-1.96c0-14.29 15.01-47.78 25.51-69.48l.04.02z" fill="#d4e1f4"/><path d="m40.37 233.97-.04-.02c-10.5 21.7-25.51 55.19-25.51 69.48v1.96l30.643-8.025c2.97-16.254 15.645-44.355 24.857-63.4z" fill="#bccbdd"/><circle cx="377.22" cy="409.95" fill="#b0b5ca" r="9.15"/><circle cx="114.84" cy="409.95" fill="#b0b5ca" r="9.15"/><path d="m262.44 328.9h-30v32.9.27h30v-.27z" fill="#b5e5bb"/><g fill="#f4f8fc"><path d="m153.457 253.705a6 6 0 0 1 -6-6v-7.151a6 6 0 1 1 12 0v7.151a6 6 0 0 1 -6 6z"/><path d="m153.457 331.552a6 6 0 0 1 -6-6v-57.886a6 6 0 0 1 12 0v57.886a6 6 0 0 1 -6 6z"/></g></svg>